<svg width="1510" height="175" viewBox="0 0 1510 175" fill="none" xmlns="http://www.w3.org/2000/svg">
<path d="M168.7 98.7H161V83.65H168.7C189.7 83.65 206.85 66.5 206.85 45.5C206.85 24.15 189.7 6.99999 168.7 6.99999H8.4V175H168.7C189.7 175 206.85 158.2 206.85 136.85C206.85 115.85 189.7 98.7 168.7 98.7ZM53.9 52.85H161V68.25H53.9V52.85ZM161 129.5H53.9V114.1H161V129.5ZM376.332 6.99999H269.232C244.032 6.99999 223.732 27.65 223.732 52.85V129.5C223.732 154.7 244.032 175 269.232 175H376.332C401.532 175 422.182 154.7 422.182 129.5V52.85C422.182 27.65 401.532 6.99999 376.332 6.99999ZM269.232 129.5V52.85H300.032V129.5H269.232ZM376.332 129.5H345.882V52.85H376.332V129.5ZM592.006 6.99999V129.5H561.556V52.85C561.556 27.65 540.906 6.99999 515.706 6.99999H484.906C459.706 6.99999 439.406 27.65 439.406 52.85V175H484.906V52.85H515.706V129.5C515.706 154.7 536.006 175 561.556 175H592.006C617.206 175 637.856 154.7 637.856 129.5V6.99999H592.006ZM654.738 6.99999V52.85H807.338V129.5H700.238V98.7H654.738V129.15C654.738 154.7 675.038 175 700.588 175H807.338C832.538 175 853.188 154.7 853.188 129.5V6.99999H654.738ZM1023.01 6.99999H915.912C890.712 6.99999 870.412 27.65 870.412 52.85V129.5C870.412 154.7 890.712 175 915.912 175H1023.01C1048.21 175 1068.86 154.7 1068.86 129.5V52.85C1068.86 27.65 1048.21 6.99999 1023.01 6.99999ZM915.912 129.5V52.85H946.712V129.5H915.912ZM1023.01 129.5H992.562V52.85H1023.01V129.5ZM1238.69 6.99999V129.5H1131.59V52.85H1162.39V6.99999H1086.09V129.5C1086.09 154.7 1106.39 175 1131.59 175H1284.54V6.99999H1238.69ZM1461.72 98.7H1454.02V83.65H1461.72C1482.72 83.65 1499.87 66.5 1499.87 45.5C1499.87 24.15 1482.72 6.99999 1461.72 6.99999H1301.42V175H1346.92V114.1H1454.02V175H1499.87V136.85C1499.87 115.85 1482.72 98.7 1461.72 98.7ZM1346.92 68.25V52.85H1454.02V68.25H1346.92Z" fill="#FC3A1D"/>
</svg>
