<svg width="1881" height="298" viewBox="0 0 1881 298" fill="none" xmlns="http://www.w3.org/2000/svg">
<path d="M284.84 162.84H271.2V136.18H284.84C322.04 136.18 352.42 105.8 352.42 68.5999C352.42 30.7799 322.04 0.399902 284.84 0.399902H0.879883V298H81.4799V190.12H271.2V298H352.42V230.42C352.42 193.22 322.04 162.84 284.84 162.84ZM81.4799 108.9V81.6199H271.2V108.9H81.4799Z" fill="white"/>
<path d="M653.251 0.399902H463.531C418.891 0.399902 382.931 36.9799 382.931 81.6199V217.4C382.931 262.04 418.891 298 463.531 298H653.251C697.891 298 734.471 262.04 734.471 217.4V81.6199C734.471 36.9799 697.891 0.399902 653.251 0.399902ZM463.531 217.4V81.6199H518.091V217.4H463.531ZM653.251 217.4H599.311V81.6199H653.251V217.4Z" fill="white"/>
<path d="M981.361 162.84V81.6199H1035.3V108.9H1116.52V82.2399C1116.52 36.9799 1079.94 0.399902 1035.3 0.399902H846.201C800.941 0.399902 764.981 36.9799 764.981 82.2399V216.78C764.981 262.04 800.941 298 846.201 298H1116.52V217.4H926.801C957.181 217.4 981.361 193.22 981.361 162.84ZM845.581 81.6199H900.141V217.4H845.581V81.6199Z" fill="white"/>
<path d="M1417.35 108.9H1336.13V81.6199H1498.57V0.399902H1363.41C1318.15 0.399902 1282.19 36.9799 1282.19 82.2399V108.9H1227.63V0.399902H1147.03V298H1227.63V190.12H1417.35V298H1498.57V190.12C1498.57 145.48 1461.99 108.9 1417.35 108.9Z" fill="white"/>
<path d="M1718.18 0.399902V81.6199H1799.4V108.9H1609.68V0.399902H1529.08V108.9C1529.08 153.54 1565.04 190.12 1609.68 190.12H1799.4V217.4H1529.08V298H1799.4C1844.04 298 1880.62 262.04 1880.62 217.4V0.399902H1718.18Z" fill="white"/>
</svg>
